<svg t="1703571772552" class="icon" viewBox="0 0 1780 1024" version="1.1" xmlns="http://www.w3.org/2000/svg" p-id="13028" data-spm-anchor-id="a313x.search_index.0.i10.7d613a81prhYvW" width="128" height="128"><path d="M575.814493 448.185507h53.426087v47.489855h-53.426087v-47.489855z m0 68.266667h53.426087v185.507246h-53.426087V516.452174z m-86.075363 0h-114.272463v38.585507H474.898551s23.744928 5.936232 23.744927 20.776812v13.356521h-90.527536s-35.617391 2.968116-47.489855 46.005798c-1.484058 19.292754 0 29.681159 1.484058 32.649275 1.484058 2.968116 11.872464 26.713043 43.037681 32.649275H549.101449v-132.081159c1.484058 1.484058-5.936232-44.521739-59.362319-51.942029z m8.904348 149.889855h-72.71884c-10.388406-4.452174-13.356522-10.388406-13.356522-11.872464 0-1.484058-2.968116-7.42029 0-13.356522 5.936232-11.872464 16.324638-14.84058 16.324638-14.840579h71.234782l-1.484058 40.069565z m-188.475362-90.527536c34.133333-17.808696 29.681159-62.330435 29.681159-62.330435-4.452174-69.750725-87.55942-65.298551-87.55942-65.298551H121.692754v258.226087h146.921739c86.075362 0 80.13913-68.266667 80.13913-68.266666 1.484058-46.005797-38.585507-62.330435-38.585507-62.330435zM178.086957 497.15942h84.591304s17.808696-1.484058 25.228985 13.356522c0 0 2.968116 14.84058-2.968116 26.713044 0 0-5.936232 10.388406-22.260869 13.356521H178.086957v-53.426087z m109.820289 148.405797s-5.936232 10.388406-20.776811 11.872464h-89.043478v-54.910145H268.614493s16.324638 2.968116 22.260869 17.808696c0 0 4.452174 13.356522-2.968116 25.228985z m529.808696-270.09855c29.681159 0 53.426087-34.133333 53.426087-75.686957s-23.744928-75.686957-53.426087-75.686956-53.426087 34.133333-53.426087 75.686956 23.744928 75.686957 53.426087 75.686957z m126.144928 4.452174c40.069565 4.452174 65.298551-37.101449 69.750724-68.266667 4.452174-31.165217-20.776812-68.266667-48.973913-75.686957-28.197101-5.936232-62.330435 38.585507-66.782609 68.266667-1.484058 34.133333 7.42029 69.750725 46.005798 75.686957z m-225.576812 102.4c53.426087-11.872464 46.005797-75.686957 44.521739-89.043479-2.968116-20.776812-28.197101-59.362319-62.330435-56.394203-43.037681 4.452174-48.973913 66.782609-48.973913 66.782609-7.42029 28.197101 13.356522 89.043478 66.782609 78.655073z m323.524638-109.82029c-47.489855 0-53.426087 43.037681-53.426087 74.202898 0 29.681159 2.968116 69.750725 60.846377 68.266667 57.878261-1.484058 51.942029-66.782609 51.942028-81.623188s-13.356522-60.846377-59.362318-60.846377zM774.678261 593.623188c-1.484058 4.452174-4.452174 16.324638-1.484058 26.713044 5.936232 22.26087 25.228986 23.744928 25.228985 23.744927h28.197102v-68.266666h-29.68116c-14.84058 2.968116-20.776812 13.356522-22.260869 17.808695z" fill="#1296db" p-id="13029" data-spm-anchor-id="a313x.search_index.0.i18.7d613a81prhYvW" class="selected"></path><path d="M1041.808696 566.910145s-60.846377-47.489855-96.463768-97.947826c-48.973913-75.686957-117.24058-44.521739-139.50145-5.936232s-57.878261 62.330435-63.814492 68.266667c-4.452174 5.936232-74.202899 43.037681-57.878261 111.304347 14.84058 68.266667 68.266667 66.782609 68.266666 66.782609s40.069565 4.452174 84.591305-5.936232c46.005797-10.388406 84.591304 2.968116 84.591304 2.968116s106.852174 35.617391 136.533333-32.649275c28.197101-71.234783-16.324638-106.852174-16.324637-106.852174z m-184.023189 102.4h-69.750724c-29.681159-5.936232-41.553623-26.713043-43.037682-29.681159-1.484058-2.968116-10.388406-19.292754-5.936231-47.489856 13.356522-41.553623 50.457971-44.521739 50.457971-44.521739h37.101449v-46.005797h31.165217v167.698551z m130.597102 0h-80.139131c-31.165217-7.42029-32.649275-29.681159-32.649275-29.681159v-89.043479h32.649275v80.139131c1.484058 8.904348 11.872464 10.388406 11.872464 10.388405h32.649275v-89.043478h34.133334v117.24058z m330.944927-14.84058V623.304348h-148.405797v41.553623h138.017391c7.42029 1.484058 10.388406-1.484058 10.388406-10.388406z m-149.889855-68.266666h149.889855v-41.553624H1169.437681v41.553624z m-56.394203-133.565218h261.194203v35.617391H1276.289855l-5.936232 22.26087h92.011594v155.826087c1.484058 22.26087-10.388406 32.649275-37.101449 31.165217H1124.915942V512H1216.927536l4.452174-22.26087H1113.043478v-37.101449z m402.17971 166.214493l16.324638 10.388406 17.808696 10.388406 32.649275-19.292754-66.782609-1.484058z m-2.968116-81.623188v25.228985h86.075363c8.904348 1.484058 13.356522-1.484058 13.356522-5.936232v-17.808696l-99.431885-1.484057z m-37.101449 0h-13.356522v-31.165218h11.872464v-11.872464h37.101449v10.388406h99.431885v-10.388406h37.101449v10.388406h11.872464v31.165218h-11.872464v25.228985c-1.484058 14.84058-10.388406 22.26087-28.197102 22.26087h-145.437681l1.484058-46.005797z m-11.872464 81.623188v-26.713044h194.411595v25.228986l-68.266667 41.553623 5.936232 2.968116c4.452174 2.968116 10.388406 4.452174 16.324638 2.968116h47.489855v31.165217h-60.846377c-7.42029 0-16.324638-1.484058-22.26087-4.452174l-25.228985-11.872463-22.26087 10.388406c-7.42029 2.968116-16.324638 5.936232-26.713043 5.936231h-46.005797v-31.165217h32.649275c7.42029 0 13.356522-1.484058 16.324638-2.968116l11.872463-5.936232-53.426087-37.101449z m51.942029-160.278261v-10.388406h41.553624v10.388406h102.4V489.73913h-207.768116v206.284058h-35.617392v-237.449275h99.431884z" fill="#1296db" p-id="13030" data-spm-anchor-id="a313x.search_index.0.i17.7d613a81prhYvW" class="selected"></path></svg>